<svg width="45" height="76" viewBox="0 0 45 76" fill="none" xmlns="http://www.w3.org/2000/svg">
<g id="cupL">
<path id="Vector" d="M10 76H35C35.6016 76.0001 36.183 75.6705 36.6377 75.0716C37.0923 74.4727 37.3896 73.6448 37.475 72.7396L42.1675 22.8H45V15.2H41.545L37.235 2.1014C37.028 1.46974 36.7091 0.938403 36.3143 0.567163C35.9194 0.195922 35.4643 -0.000496282 35 9.41683e-07H10C9.0525 9.41683e-07 8.1875 0.813201 7.7625 2.1014L3.455 15.2H0V22.8H2.8325L7.525 72.7396C7.61043 73.6448 7.90772 74.4727 8.36234 75.0716C8.81696 75.6705 9.39841 76.0001 10 76ZM36.045 34.2H8.955L7.8825 22.8H37.115L36.045 34.2ZM12.1675 68.4L11.095 57H33.9025L32.83 68.4H12.1675ZM11.545 7.6H33.455L35.955 15.2H9.045L11.545 7.6Z" fill="black"/>
<path id="L" d="M19.7614 53V38.4545H21.5227V51.4375H28.2841V53H19.7614Z" fill="white"/>
</g>
</svg>
