<svg width="45" height="64" viewBox="0 0 45 64" fill="none" xmlns="http://www.w3.org/2000/svg">
<g id="cupM">
<path id="Vector" d="M10 64H35C35.6016 64.0001 36.183 63.7225 36.6377 63.2182C37.0923 62.7139 37.3896 62.0166 37.475 61.2544L42.1675 19.2H45V12.8H41.545L37.235 1.7696C37.028 1.23767 36.7091 0.790234 36.3143 0.477611C35.9194 0.164987 35.4643 -0.000417922 35 7.92997e-07H10C9.0525 7.92997e-07 8.1875 0.684801 7.7625 1.7696L3.455 12.8H0V19.2H2.8325L7.525 61.2544C7.61043 62.0166 7.90772 62.7139 8.36234 63.2182C8.81696 63.7225 9.39841 64.0001 10 64ZM36.045 28.8H8.955L7.8825 19.2H37.115L36.045 28.8ZM12.1675 57.6L11.095 48H33.9025L32.83 57.6H12.1675ZM11.545 6.4H33.455L35.955 12.8H9.045L11.545 6.4Z" fill="black"/>
<path id="M" d="M16.4091 32.3636H18.0909L22.0455 42.0227H22.1818L26.1364 32.3636H27.8182V44H26.5V35.1591H26.3864L22.75 44H21.4773L17.8409 35.1591H17.7273V44H16.4091V32.3636Z" fill="white"/>
</g>
</svg>
