<svg width="45" height="50" viewBox="0 0 45 50" fill="none" xmlns="http://www.w3.org/2000/svg">
<g id="cupS">
<path id="Vector" d="M10 50H35C35.6016 50.0001 36.183 49.7832 36.6377 49.3892C37.0923 48.9952 37.3896 48.4505 37.475 47.855L42.1675 15H45V10H41.545L37.235 1.3825C37.028 0.966933 36.7091 0.617371 36.3143 0.373133C35.9194 0.128896 35.4643 -0.000326501 35 6.19529e-07H10C9.0525 6.19529e-07 8.1875 0.535001 7.7625 1.3825L3.455 10H0V15H2.8325L7.525 47.855C7.61043 48.4505 7.90772 48.9952 8.36234 49.3892C8.81696 49.7832 9.39841 50.0001 10 50ZM36.045 22.5H8.955L7.8825 15H37.115L36.045 22.5ZM12.1675 45L11.095 37.5H33.9025L32.83 45H12.1675ZM11.545 5H33.455L35.955 10H9.045L11.545 5Z" fill="black"/>
<path id="S" d="M25.7727 27.2727C25.7045 26.697 25.428 26.25 24.9432 25.9318C24.4583 25.6136 23.8636 25.4545 23.1591 25.4545C22.6439 25.4545 22.1932 25.5379 21.8068 25.7045C21.4242 25.8712 21.125 26.1004 20.9091 26.392C20.697 26.6837 20.5909 27.0152 20.5909 27.3864C20.5909 27.697 20.6648 27.964 20.8125 28.1875C20.964 28.4072 21.1572 28.5909 21.392 28.7386C21.6269 28.8826 21.8731 29.0019 22.1307 29.0966C22.3883 29.1875 22.625 29.2614 22.8409 29.3182L24.0227 29.6364C24.3258 29.7159 24.6629 29.8258 25.0341 29.9659C25.4091 30.1061 25.767 30.2973 26.108 30.5398C26.4527 30.7784 26.7367 31.0852 26.9602 31.4602C27.1837 31.8352 27.2955 32.2955 27.2955 32.8409C27.2955 33.4697 27.1307 34.0379 26.8011 34.5455C26.4754 35.053 25.9981 35.4564 25.3693 35.7557C24.7443 36.0549 23.9848 36.2045 23.0909 36.2045C22.2576 36.2045 21.536 36.0701 20.9261 35.8011C20.3201 35.5322 19.8428 35.1572 19.4943 34.6761C19.1496 34.1951 18.9545 33.6364 18.9091 33H20.3636C20.4015 33.4394 20.5492 33.803 20.8068 34.0909C21.0682 34.375 21.3977 34.5871 21.7955 34.7273C22.197 34.8636 22.6288 34.9318 23.0909 34.9318C23.6288 34.9318 24.1117 34.8447 24.5398 34.6705C24.9678 34.4924 25.3068 34.2462 25.5568 33.9318C25.8068 33.6136 25.9318 33.2424 25.9318 32.8182C25.9318 32.4318 25.8239 32.1174 25.608 31.875C25.392 31.6326 25.108 31.4356 24.7557 31.2841C24.4034 31.1326 24.0227 31 23.6136 30.8864L22.1818 30.4773C21.2727 30.2159 20.553 29.8428 20.0227 29.358C19.4924 28.8731 19.2273 28.2386 19.2273 27.4545C19.2273 26.803 19.4034 26.2348 19.7557 25.75C20.1117 25.2614 20.589 24.8826 21.1875 24.6136C21.7898 24.3409 22.4621 24.2045 23.2045 24.2045C23.9545 24.2045 24.6212 24.339 25.2045 24.608C25.7879 24.8731 26.25 25.2367 26.5909 25.6989C26.9356 26.161 27.1174 26.6856 27.1364 27.2727H25.7727Z" fill="white"/>
</g>
</svg>
