<svg width="202" height="228" viewBox="0 0 202 228" fill="none" xmlns="http://www.w3.org/2000/svg">
<g id="coffee-beans_svgrepo.com">
<path id="Vector" fill-rule="evenodd" clip-rule="evenodd" d="M44.6755 96.0222C44.7867 94.3353 43.2912 93.1244 41.9922 93.9678C28.8135 102.524 23.9085 124.573 29.1971 146.851C34.6358 169.761 48.9985 185.075 64.6686 183.979C65.7809 183.902 66.55 182.734 66.605 181.478C66.7351 178.512 67.5885 175.237 67.9181 172.48C68.8023 165.087 67.1593 157.682 63.2946 151.643L49.7878 130.533C45.4477 123.75 43.3891 115.54 43.9385 107.205L44.6755 96.0222ZM81.678 180.468C81.7525 180.62 81.9326 180.541 82.074 180.47C96.9263 173.034 101.798 150.058 96.2244 126.579C90.8739 104.039 76.8964 88.8534 61.5145 89.41C60.1941 89.4578 59.3575 91.0351 59.4596 92.5216C59.7645 96.9618 58.3402 102.829 58.0896 106.633C57.64 113.453 59.3243 120.169 62.8754 125.719L76.3821 146.829C81.1056 154.212 83.1138 163.261 82.0331 172.298C81.2955 178.464 81.484 180.07 81.678 180.468Z" fill="#744A30" stroke="#2F2118" stroke-width="2.5"/>
<path id="Vector_2" fill-rule="evenodd" clip-rule="evenodd" d="M143.88 47.6041C144.723 46.206 143.965 44.3134 142.466 44.3108C127.263 44.2832 113.247 60.6099 107.959 82.8875C102.52 105.798 108.174 127.166 122.231 135.061C123.228 135.621 124.412 135.044 125.016 133.987C126.443 131.491 128.632 129.137 130.138 126.936C134.179 121.033 136.037 113.692 135.365 106.28L133.02 80.3766C132.265 72.0529 134.12 63.781 138.288 56.8722L143.88 47.6041ZM138.517 141.618C138.514 141.793 138.705 141.825 138.859 141.844C155.016 143.786 169.412 126.638 174.986 103.16C180.337 80.6198 174.959 59.5799 161.391 51.3811C160.227 50.6774 158.804 51.5711 158.233 52.9162C156.531 56.9331 152.699 61.2104 150.796 64.3633C147.386 70.0159 145.869 76.7838 146.485 83.5941L148.832 109.498C149.653 118.557 147.383 127.528 142.444 134.743C139.073 139.668 138.525 141.164 138.517 141.618Z" fill="#744A30" stroke="#2F2118" stroke-width="2.5"/>
</g>
</svg>
