<svg width="67" height="90" viewBox="0 0 67 90" fill="none" xmlns="http://www.w3.org/2000/svg">
<path id="Vector" fill-rule="evenodd" clip-rule="evenodd" d="M17.5704 8.01662C17.6689 6.48507 16.3437 5.38573 15.1926 6.15146C3.51451 13.9196 -0.832057 33.9373 3.85439 54.1638C8.67381 74.9639 21.4012 88.8673 35.2871 87.872C36.2727 87.8022 36.9542 86.7421 37.003 85.6011C37.1183 82.9083 37.8745 79.9353 38.1666 77.4323C38.9501 70.7204 37.4942 63.9972 34.0695 58.5143L22.1006 39.3487C18.2546 33.1904 16.4305 25.7367 16.9173 18.1691L17.5704 8.01662ZM50.3597 84.6842C50.4258 84.8222 50.5854 84.7506 50.7106 84.6859C63.8719 77.9352 68.1888 57.0756 63.2499 35.7589C58.5086 15.2952 46.1226 1.5081 32.4921 2.01344C31.322 2.05683 30.5807 3.48883 30.6712 4.83847C30.9413 8.86962 29.6792 14.1964 29.4571 17.6499C29.0588 23.8418 30.5513 29.9396 33.698 34.9784L45.6668 54.144C49.8525 60.8465 51.632 69.0626 50.6744 77.2667C50.0208 82.8652 50.1878 84.3228 50.3597 84.6842Z" fill="#744A30" stroke="#2F2118" stroke-width="2.5"/>
</svg>
