<svg width="30" height="39" viewBox="0 0 30 39" fill="none" xmlns="http://www.w3.org/2000/svg">
<g id="Group 3">
<path id="Vector" d="M3.00025 37.2652L3.40124 1.26746C3.40862 0.605097 2.87824 0.0615544 2.21468 0.0541629C1.55112 0.0467714 1.00877 0.578365 1.00139 1.24072L0.600402 37.2385C0.593024 37.9008 1.1234 38.4444 1.78696 38.4518C2.45052 38.4592 2.99286 37.9288 3.00025 37.2652Z" fill="#231F20"/>
<path id="Vector_2" d="M29.3986 37.5593L29.7996 1.56151C29.807 0.899153 29.2766 0.35561 28.613 0.348219C27.9495 0.340827 27.4071 0.872421 27.3998 1.53478L26.9988 37.5325C26.9914 38.1949 27.5218 38.7384 28.1853 38.7458C28.8489 38.7532 29.3912 38.2228 29.3986 37.5593Z" fill="#231F20"/>
<path id="Vector_3" d="M16.1994 37.4123L16.6004 1.41449C16.6078 0.752127 16.0774 0.208584 15.4139 0.201193C14.7503 0.193801 14.2079 0.725395 14.2006 1.38775L13.7996 37.3855C13.7922 38.0479 14.3226 38.5914 14.9861 38.5988C15.6497 38.6062 16.192 38.0758 16.1994 37.4123Z" fill="#231F20"/>
</g>
</svg>
