<svg width="39" height="29" viewBox="0 0 39 29" fill="none" xmlns="http://www.w3.org/2000/svg">
<g id="Group 2">
<path id="Vector" d="M1.2 2.4H37.2C37.8624 2.4 38.4 1.8636 38.4 1.2C38.4 0.5364 37.8624 0 37.2 0H1.2C0.5376 0 0 0.5364 0 1.2C0 1.8636 0.5364 2.4 1.2 2.4Z" fill="#231F20"/>
<path id="Vector_2" d="M1.2 28.8H37.2C37.8624 28.8 38.4 28.2636 38.4 27.6C38.4 26.9364 37.8624 26.4 37.2 26.4H1.2C0.5376 26.4 0 26.9364 0 27.6C0 28.2636 0.5364 28.8 1.2 28.8Z" fill="#231F20"/>
<path id="Vector_3" d="M1.2 15.6H37.2C37.8624 15.6 38.4 15.0636 38.4 14.4C38.4 13.7364 37.8624 13.2 37.2 13.2H1.2C0.5376 13.2 0 13.7364 0 14.4C0 15.0636 0.5364 15.6 1.2 15.6Z" fill="#231F20"/>
</g>
</svg>
