<svg width="45" height="49" viewBox="0 0 45 49" fill="none" xmlns="http://www.w3.org/2000/svg">
<g id="tiktok">
<path id="Vector" d="M8.34554 31.4861C8.63856 29.0601 9.63357 27.7018 11.5086 26.3094C14.1915 24.4236 17.5427 25.4902 17.5427 25.4902V19.1619C18.3576 19.1409 19.1726 19.1893 19.9783 19.3061V27.4502C19.9783 27.4502 16.6281 26.3835 13.9453 28.2703C12.0713 29.6617 11.0742 31.0211 10.7822 33.4472C10.773 34.7646 11.0203 36.4866 12.1588 37.9755C11.8772 37.8311 11.5903 37.6667 11.298 37.4822C8.79014 35.7981 8.33333 33.2717 8.34554 31.4861ZM33.816 7.46058C31.9704 5.43823 31.2724 3.39635 31.0202 1.96198H33.3418C33.3418 1.96198 32.8789 5.72294 36.2526 9.42153L36.2994 9.47126C35.3901 8.89931 34.5563 8.22419 33.816 7.46058ZM45 13.1942V21.1744C45 21.1744 42.0375 21.0585 39.8451 20.5007C36.7836 19.7205 34.8159 18.5241 34.8159 18.5241C34.8159 18.5241 33.4568 17.6709 33.3469 17.6115V34.0907C33.3469 35.0083 33.0956 37.2997 32.3295 39.2109C31.3294 41.7112 29.7861 43.3522 29.5022 43.6877C29.5022 43.6877 27.6251 45.906 24.3135 47.4C21.3285 48.7476 18.7076 48.7134 17.9243 48.7476C17.9243 48.7476 13.3939 48.927 9.31716 46.2776C8.43559 45.6936 7.61271 45.0322 6.85913 44.3019L6.87949 44.3166C10.9572 46.9659 15.4866 46.7865 15.4866 46.7865C16.2711 46.7524 18.8918 46.7865 21.8758 45.4389C25.1844 43.9451 27.0645 41.7268 27.0645 41.7268C27.3454 41.3914 28.8958 39.7502 29.8918 37.2491C30.6559 35.3389 30.9092 33.0463 30.9092 32.1289V15.6516C31.0191 15.7119 32.3773 16.5651 32.3773 16.5651C32.3773 16.5651 34.3461 17.7626 37.4074 18.5417C39.6008 19.0995 42.5625 19.2156 42.5625 19.2156V12.9621C43.5758 13.1893 44.4396 13.2508 45 13.1942Z" fill="#EE1D52"/>
<path id="Vector_2" d="M42.5642 12.9621V19.2135C42.5642 19.2135 39.6024 19.0974 37.4091 18.5398C34.3478 17.7596 32.379 16.5632 32.379 16.5632C32.379 16.5632 31.0208 15.7101 30.9109 15.6495V32.1307C30.9109 33.0484 30.6596 35.3407 29.8935 37.251C28.8934 39.7522 27.3501 41.3932 27.0662 41.7287C27.0662 41.7287 25.1882 43.947 21.8775 45.441C18.8934 46.7886 16.2728 46.7544 15.4883 46.7886C15.4883 46.7886 10.9589 46.968 6.88117 44.3186L6.86082 44.304C6.4303 43.887 6.02506 43.4469 5.64708 42.9857C4.34583 41.3991 3.5482 39.5229 3.34777 38.9876V38.9809C3.02527 38.0507 2.34768 35.8166 2.44027 33.6529C2.60407 29.8354 3.94702 27.4922 4.30208 26.9051C5.24245 25.3044 6.46554 23.8721 7.91688 22.6723C9.1976 21.6367 10.6493 20.8129 12.2123 20.2344C13.902 19.5553 15.7114 19.1912 17.5434 19.1619V25.4902C17.5434 25.4902 14.1921 24.4275 11.5103 26.3094C9.63524 27.7018 8.64023 29.0601 8.34723 31.4861C8.33502 33.2717 8.79183 35.7981 11.2976 37.4831C11.5899 37.6684 11.8768 37.8328 12.1584 37.9764C12.5961 38.5455 13.1289 39.0414 13.7353 39.444C16.1831 40.9935 18.2342 41.1017 20.8571 40.0954C22.6059 39.4226 23.9224 37.9063 24.5329 36.2261C24.9165 35.1771 24.9114 34.1209 24.9114 33.0289V1.96198H31.0157C31.2681 3.39635 31.966 5.43823 33.8115 7.46058C34.5518 8.22419 35.3858 8.89931 36.2949 9.47126C36.5636 9.74915 37.9371 11.1231 39.7001 11.9665C40.6118 12.4025 41.5729 12.7366 42.5642 12.9621Z" fill="black"/>
<path id="Vector_3" d="M0.917374 37.044V37.0489L1.06884 37.4595C1.05144 37.4117 0.995149 37.2664 0.917374 37.044Z" fill="#69C9D0"/>
<path id="Vector_4" d="M12.2115 20.2342C10.6485 20.8129 9.19684 21.6367 7.9161 22.6721C6.46431 23.8747 5.24153 25.3101 4.30234 26.9137C3.94727 27.4989 2.60432 29.844 2.44052 33.6615C2.34794 35.8252 3.02552 38.0593 3.34802 38.9895V38.9962C3.5515 39.5269 4.34609 41.4028 5.64734 42.9943C6.02532 43.4556 6.43056 43.8958 6.86108 44.3126C5.4817 43.3982 4.25149 42.2929 3.21068 41.0323C1.92062 39.4596 1.12502 37.6029 0.91748 37.0549C0.917236 37.0509 0.917236 37.047 0.91748 37.0432V37.0363C0.593948 36.1071 -0.0856643 33.8721 0.00894825 31.7055C0.172748 27.888 1.51572 25.5448 1.87079 24.9577C2.80969 23.3537 4.03251 21.9184 5.48455 20.7161C6.76501 19.6802 8.21672 18.8563 9.77997 18.2782C10.755 17.8905 11.7709 17.6046 12.8098 17.4251C14.3754 17.1632 15.9746 17.1403 17.5478 17.3578V19.1617C15.714 19.1904 13.9028 19.5546 12.2115 20.2342Z" fill="#69C9D0"/>
<path id="Vector_5" d="M31.0196 1.96191H24.9152V33.0298C24.9152 34.1218 24.9152 35.175 24.5368 36.2271C23.9203 37.9063 22.6088 39.4224 20.8609 40.0954C18.2372 41.1056 16.1861 40.9935 13.7393 39.444C13.1318 39.0431 12.5976 38.5489 12.1583 37.9813C14.2429 39.0471 16.1087 39.0285 18.4202 38.1394C20.1671 37.4664 21.4806 35.9501 22.095 34.2701C22.4796 33.2209 22.4745 32.1649 22.4745 31.0736V0H30.9036C30.9036 0 30.8091 0.772275 31.0196 1.96191ZM42.5629 11.2332V12.9621C41.5735 12.7362 40.6142 12.4021 39.7041 11.9665C37.941 11.123 36.5674 9.7491 36.2989 9.47119C36.6105 9.66731 36.934 9.84574 37.2673 10.0055C39.411 11.0314 41.5221 11.3375 42.5629 11.2332Z" fill="#69C9D0"/>
</g>
</svg>
