<svg width="55" height="47" viewBox="0 0 55 47" fill="none" xmlns="http://www.w3.org/2000/svg">
<path id="Vector" fill-rule="evenodd" clip-rule="evenodd" d="M46.9572 3.11898C47.8284 2.91248 48.4359 2.70946 48.9337 2.49623C49.6312 2.19738 50.2094 1.83938 51.1232 1.23646C51.8909 0.729734 52.8749 0.685609 53.6849 1.12156C54.4949 1.55751 55.0002 2.40311 55.0002 3.32301C55.0002 6.02533 54.6634 8.24018 53.8839 10.1894C53.2279 11.8289 52.3064 13.1605 51.2042 14.3726C50.7387 22.7804 48.3049 29.3831 44.5842 34.3854C40.7277 39.5701 35.5967 42.8904 30.1879 44.7499C24.7949 46.6036 19.0968 47.0179 13.9919 46.3901C8.92059 45.7666 4.23279 44.0876 0.965316 41.5464C0.0705162 40.8504 -0.244026 39.6394 0.198966 38.5959C0.641966 37.5524 1.73159 36.9376 2.85379 37.0981C6.06872 37.5574 9.16344 36.8264 11.7082 35.7814C11.2072 35.5089 10.7349 35.2139 10.2959 34.9099C7.97707 33.3046 6.10619 31.1254 5.26412 29.4411C4.91564 28.7444 4.91204 27.9246 5.25439 27.2249C5.43099 26.8636 5.68924 26.5559 6.00279 26.3211C2.61712 23.5269 1.25017 19.6621 1.25017 17.073C1.25017 16.3032 1.60487 15.5762 2.21167 15.1025C2.46682 14.9033 2.75457 14.7582 3.05789 14.6708C2.80454 13.9289 2.60794 13.1794 2.45809 12.4538C1.79367 9.23661 1.85264 5.60546 2.57482 2.71668C2.82194 1.72813 3.64429 0.988509 4.65342 0.847159C5.66252 0.705834 6.65644 1.19108 7.16564 2.07371C9.85942 6.74291 14.8281 9.59693 19.4523 11.2876C21.6264 12.0824 23.6399 12.5889 25.1492 12.9003C25.4749 9.84883 26.3269 7.33236 27.6347 5.33363C29.3599 2.69666 31.7662 1.13648 34.3502 0.440809C38.8069 -0.758941 43.7522 0.607909 46.9572 3.11898ZM24.3712 17.8445C22.6584 17.5005 20.3045 16.9228 17.7355 15.9836C14.3424 14.7431 10.4024 12.8088 7.10199 9.81263C7.16107 10.364 7.24492 10.9107 7.35477 11.4425C7.90789 14.1208 8.93569 15.6208 9.86822 16.0871C11.0087 16.6574 11.5373 17.9946 11.0949 19.1906C10.4959 20.8099 8.92042 20.9426 7.48897 20.5849C8.64027 22.3109 10.7096 24.0319 14.1612 24.6071C15.3516 24.8056 16.2304 25.8261 16.2498 27.0329C16.2693 28.2396 15.4239 29.2879 14.2405 29.5246L12.0643 29.9599C12.3972 30.2491 12.7577 30.5329 13.1419 30.7989C14.8842 32.0051 16.6336 32.5254 18.1438 32.1479C19.275 31.8651 20.4514 32.4016 20.9793 33.4414C21.5071 34.4809 21.2463 35.7474 20.3506 36.4936C18.7408 37.8336 16.8608 38.9089 14.9766 39.8011C14.0921 40.2201 13.1035 40.6336 12.0299 40.9976C12.8556 41.1739 13.7148 41.3184 14.6021 41.4276C19.0286 41.9719 23.9554 41.6049 28.5624 40.0214C33.1537 38.4431 37.3974 35.6696 40.5724 31.4014C43.7427 27.1389 45.9552 21.2401 46.2519 13.2306C46.2752 12.6 46.5362 12.0016 46.9824 11.5554C48.1064 10.4313 49.0354 9.14278 49.4924 7.60911C48.6927 7.85843 47.7922 8.07423 46.7197 8.27928C45.9059 8.43483 45.0682 8.17726 44.4824 7.59153C42.5712 5.68021 38.7912 4.42331 35.6499 5.26891C34.1717 5.66688 32.8279 6.52843 31.8187 8.07101C30.7884 9.64596 30.0002 12.0995 30.0002 15.8231C30.0002 16.5306 29.7004 17.2049 29.1754 17.6789C27.9304 18.8026 25.8352 18.1384 24.3712 17.8445Z" fill="#0F0F0F"/>
</svg>
